<svg xmlns="http://www.w3.org/2000/svg" width="91.166" height="203.385" viewBox="0 0 91.166 203.385"><defs><style>.a{fill:#a3d6eb;}.b{opacity:0.4;}.c{fill:#f9b0b6;}.d{opacity:0.05;}.e{fill:#e4e7e9;}.f{fill:#6fa1da;}.g,.h{opacity:0.1;}.i{fill:#4a5058;}</style></defs><g transform="translate(-145.337)"><path class="a" d="M222.034,246.621H168.615c-8.519,0-15.406-6.7-15.338-14.911l.243-29.377A51.736,51.736,0,0,1,161,176.043h0a18.038,18.038,0,0,0,2.611-9.33V146.366a32.422,32.422,0,0,0-4.779-16.908h0A40.614,40.614,0,0,1,162,82.531h0a15.982,15.982,0,0,1,12.437-5.86h41.784a15.982,15.982,0,0,1,12.437,5.86h0a40.613,40.613,0,0,1,3.159,46.927h0a32.422,32.422,0,0,0-4.779,16.908v20.347a18.038,18.038,0,0,0,2.611,9.33h0a51.74,51.74,0,0,1,7.485,26.29l.243,29.377C237.44,239.926,230.553,246.621,222.034,246.621Z" transform="translate(-4.412 -46.214)"/><g class="b" transform="translate(152.339 165.588)"><ellipse class="c" cx="11.893" cy="6.873" rx="11.893" ry="6.873" transform="translate(53.355)"/><ellipse class="c" cx="11.893" cy="6.873" rx="11.893" ry="6.873"/></g><path class="d" d="M209.456,118.75c7.292,0,13.981-2.267,20.449-4.46,2.175-.737,4.3-1.456,6.361-2.052a40.893,40.893,0,0,0-2.277-5.38c-1.994.594-4.013,1.277-6.072,1.975-5.994,2.032-12.191,4.133-18.46,4.133a2.894,2.894,0,1,0,0,5.784ZM182.442,241.043c-5.535,0-11.068,1.876-16.926,3.862A95.019,95.019,0,0,1,153.9,248.3l0,.472a14.288,14.288,0,0,0,.951,5.251,98.046,98.046,0,0,0,12.652-3.659c5.361-1.817,10.426-3.534,14.937-3.534a2.894,2.894,0,1,0,0-5.784Zm55.5.844a99.667,99.667,0,0,0-10.024,3.018c-5.994,2.032-12.191,4.132-18.46,4.132a2.894,2.894,0,1,0,0,5.784c7.292,0,13.981-2.267,20.449-4.46,2.787-.945,5.493-1.86,8.084-2.523Zm-55.5-136.915c-5.535,0-11.068,1.876-16.926,3.862-3.194,1.082-6.445,2.182-9.735,2.975a40.577,40.577,0,0,0-1.668,6.277,93.029,93.029,0,0,0,13.391-3.8c5.361-1.817,10.426-3.534,14.937-3.534a2.894,2.894,0,1,0,0-5.784Z" transform="translate(-5.036 -63.273)"/><path class="e" d="M244.042,7.5H218.1a4.4,4.4,0,0,0-4.477,4.317v23.16h34.9V11.817A4.4,4.4,0,0,0,244.042,7.5Z" transform="translate(-40.157 -4.521)"/><path class="f" d="M153.514,167.959a40.741,40.741,0,0,0,5.72,16.524h0a32.422,32.422,0,0,1,4.779,16.908v20.347a18.038,18.038,0,0,1-2.611,9.33h0c-.747,1.237-1.433,2.5-2.072,3.788h72.782c-.638-1.285-1.325-2.551-2.072-3.788h0a18.038,18.038,0,0,1-2.611-9.33V201.391a32.422,32.422,0,0,1,4.779-16.908h0a40.743,40.743,0,0,0,5.72-16.524Z" transform="translate(-4.809 -101.239)"/><path class="g" d="M238.346,284.612h0a18.038,18.038,0,0,1-2.611-9.329V256.817a13.413,13.413,0,0,0-8.435,2.513h0a13.115,13.115,0,0,1-15.516,0h0a13.115,13.115,0,0,0-15.516,0h0a13.115,13.115,0,0,1-15.516,0h0a13.41,13.41,0,0,0-8.435-2.513v18.466a18.038,18.038,0,0,1-2.611,9.329h0c-.747,1.237-1.433,2.5-2.072,3.788h72.782C239.779,287.115,239.092,285.849,238.346,284.612Z" transform="translate(-13.113 -154.783)"/><path class="a" d="M249.694,227.32c0-5.841-8.181-19.315-12.337-25.783a2.834,2.834,0,0,0-4.727,0c-4.156,6.468-12.337,19.942-12.337,25.783a14.71,14.71,0,0,0,29.4,0Z" transform="translate(-44.081 -120.713)"/><g class="h" transform="translate(181.886 2.979)"><rect width="6.179" height="27.477" transform="translate(0)"/><rect width="6.179" height="27.477" transform="translate(11.875)"/></g><path class="g" d="M301.5,176.043a18.038,18.038,0,0,1-2.611-9.33V146.366a32.422,32.422,0,0,1,4.779-16.908,40.614,40.614,0,0,0-3.159-46.927h0a15.982,15.982,0,0,0-12.437-5.86H275.026a15.982,15.982,0,0,1,12.437,5.86h0a40.613,40.613,0,0,1,3.159,46.927h0a32.422,32.422,0,0,0-4.779,16.908v20.347a18.038,18.038,0,0,0,2.611,9.33,51.742,51.742,0,0,1,7.485,26.29l.243,29.377c.068,8.216-6.819,14.911-15.338,14.911h13.047c8.519,0,15.406-6.7,15.338-14.911l-.243-29.377A51.741,51.741,0,0,0,301.5,176.043Z" transform="translate(-76.268 -46.214)"/><g transform="translate(160.573 151.076)"><path class="i" d="M185.414,390.636a3.036,3.036,0,0,1-3.089-2.979v-4.362a3.091,3.091,0,0,1,6.179,0v4.362A3.036,3.036,0,0,1,185.414,390.636Z" transform="translate(-182.325 -380.315)"/><path class="i" d="M317.727,390.636a3.036,3.036,0,0,1-3.089-2.979v-4.362a3.091,3.091,0,0,1,6.179,0v4.362A3.036,3.036,0,0,1,317.727,390.636Z" transform="translate(-260.137 -380.315)"/><path class="i" d="M241.313,400.9a12.821,12.821,0,0,1-9.514-4.178,2.906,2.906,0,0,1,.3-4.2,3.169,3.169,0,0,1,4.358.288,6.59,6.59,0,0,0,9.711,0,3.168,3.168,0,0,1,4.358-.288,2.906,2.906,0,0,1,.3,4.2A12.818,12.818,0,0,1,241.313,400.9Z" transform="translate(-210.973 -387.228)"/></g><path class="g" d="M244.043,7.5H237.7a4.4,4.4,0,0,1,4.477,4.317V27.566H213.622v7.41h34.9V11.817A4.4,4.4,0,0,0,244.043,7.5Z" transform="translate(-40.158 -4.521)"/><path d="M190.913,164.747a12.821,12.821,0,0,0,9.514-4.178,2.906,2.906,0,0,0-.3-4.2,3.168,3.168,0,0,0-4.358.288,6.59,6.59,0,0,1-9.711,0,3.169,3.169,0,0,0-4.358-.288,2.906,2.906,0,0,0-.3,4.2A12.818,12.818,0,0,0,190.913,164.747Zm0-88.172a5.885,5.885,0,0,0-4.99,2.68c-10.58,16.465-12.8,23.962-12.8,27.352,0,9.46,7.98,17.156,17.79,17.156s17.789-7.7,17.789-17.156c0-3.39-2.221-10.887-12.8-27.352A5.884,5.884,0,0,0,190.913,76.574Zm11.611,30.032a11.618,11.618,0,0,1-23.222,0c0-3.494,4.441-12.593,11.611-23.8C198.082,94.013,202.524,103.112,202.524,106.606Zm18.729,51.811v-4.362a3.091,3.091,0,0,0-6.179,0v4.362a3.091,3.091,0,0,0,6.179,0ZM227.9,128.33a15.16,15.16,0,0,1-2.191-7.83V100.152a29.284,29.284,0,0,1,2.138-11,2.947,2.947,0,0,0-1.76-3.856,3.127,3.127,0,0,0-4,1.7,35.026,35.026,0,0,0-2.558,13.154V120.5a20.942,20.942,0,0,0,2.633,10.138h-62.5a20.936,20.936,0,0,0,2.633-10.138V100.152a35.352,35.352,0,0,0-5.206-18.42A37.944,37.944,0,0,1,152.306,69.7H229.52a38.034,38.034,0,0,1-1.309,4.7,2.956,2.956,0,0,0,1.943,3.774,3.116,3.116,0,0,0,3.913-1.874,43.417,43.417,0,0,0-7.388-41.817,18.993,18.993,0,0,0-14.874-7.008h-.354V7.3A7.445,7.445,0,0,0,203.885,0H177.941a7.443,7.443,0,0,0-7.566,7.3v20.18h-.354a18.992,18.992,0,0,0-14.874,7.008,43.507,43.507,0,0,0-3.384,50.27,29.546,29.546,0,0,1,4.351,15.4V120.5a15.162,15.162,0,0,1-2.191,7.831,54.724,54.724,0,0,0-7.9,27.763l-.073,8.062a3.033,3.033,0,0,0,3.062,3.005h.028a3.037,3.037,0,0,0,3.089-2.953l.073-8.062a48.76,48.76,0,0,1,4.311-19.548h68.81a48.751,48.751,0,0,1,4.31,19.546l.243,29.377a11.519,11.519,0,0,1-3.553,8.414,12.394,12.394,0,0,1-8.7,3.493H164.2a12.394,12.394,0,0,1-8.7-3.493,11.514,11.514,0,0,1-3.553-8.407l.072-6.741a3.033,3.033,0,0,0-3.057-3.01h-.033a3.037,3.037,0,0,0-3.089,2.948l-.072,6.748a17.328,17.328,0,0,0,5.345,12.658,18.645,18.645,0,0,0,13.083,5.255h53.419a18.647,18.647,0,0,0,13.083-5.255,17.331,17.331,0,0,0,5.345-12.658l-.243-29.379A54.729,54.729,0,0,0,227.9,128.33ZM176.553,7.3a1.365,1.365,0,0,1,1.387-1.338h25.944A1.365,1.365,0,0,1,205.272,7.3v20.18H176.553V7.3Zm-25,56.444a37.775,37.775,0,0,1,8.465-25.593,12.768,12.768,0,0,1,10-4.712H211.8a12.768,12.768,0,0,1,10,4.712A37.829,37.829,0,0,1,230.28,63.74Zm15.2,94.677v-4.362a3.091,3.091,0,0,0-6.179,0v4.362a3.091,3.091,0,0,0,6.179,0Z"/></g></svg>